# xmcd
#
# Track frame offsets:
#	150
#	16315
#	31309
#	46275
#	61035
#	77847
#	95855
#	113821
#	132127
#	149110
#	166756
#	183193
#	201369
#	214357
#	232289
#	250120
#	267001
#	282351
#	296253
#	306977
#	320484
#	331713
#
# Disc length: 4639 seconds
#
# Revision: 1
# Processed by: cddbd v1.5.2PL0 Copyright (c) Steve Scherf et al.
# Submitted via: audiograbber 1.83.01
#
DISCID=46121d16
DTITLE=MACIEL MELO - NA RODAGEM DO TEMPO
DYEAR=1900
DGENRE=
TTITLE0=DAMA DE OURO
TTITLE1=A POEIRA E A ESTRADA
TTITLE2=DÊ CÁ UM CHEIRO
TTITLE3=SANFONEIRO RUIM
TTITLE4=DERRETENDO A SEDA
TTITLE5=NÃO MEREÇO VOCÊ
TTITLE6=O SOLADO DA CHINELA
TTITLE7=FLOR MULHER
TTITLE8=ACELERANDO O CORAÇÃO
TTITLE9=CHAMA EU
TTITLE10=CABOCLO SONHADOR
TTITLE11=SOB UM CÉU AZUL
TTITLE12=BRASIL PERNAMBUCANO
TTITLE13=MUDANÇA
TTITLE14=VAI MELHORAR
TTITLE15=BEBEDOURO
TTITLE16=NASCENTE
TTITLE17=COCO PENERUÊ
TTITLE18=COCO DA PARAFUZETA
TTITLE19=ISSO VALE UM ABRAÇO
TTITLE20=SERROTE AGUDO
TTITLE21=PINGO D'ÁGUA
EXTD=
EXTT0=
EXTT1=
EXTT2=
EXTT3=
EXTT4=
EXTT5=
EXTT6=
EXTT7=
EXTT8=
EXTT9=
EXTT10=
EXTT11=
EXTT12=
EXTT13=
EXTT14=
EXTT15=
EXTT16=
EXTT17=
EXTT18=
EXTT19=
EXTT20=
EXTT21=
PLAYORDER=
